<svg width="54" height="75" viewBox="0 0 54 75" fill="none" xmlns="http://www.w3.org/2000/svg">
<circle cx="27" cy="27" r="27" fill="#75B051"/>
<path d="M11.2733 32.2615H12.7212V34.8597H15.3899V32.2615H16.8377V38.8354H15.3899V36.198H12.7212V38.8354H11.2733V32.2615V32.2615Z" fill="white"/>
<path d="M20.6634 32.212H21.9938L24.8112 38.8329H23.3008L22.6982 37.3616H19.9199L19.3173 38.8329H17.846L20.6634 32.212ZM22.1817 36.086L21.3051 33.9573L20.4286 36.086H22.1817Z" fill="white"/>
<path d="M25.8294 32.2592H27.2773V37.5183H30.5564V38.8331H25.8294V32.2592Z" fill="white"/>
<path d="M33.8982 32.212H35.2286L38.046 38.8329H36.5356L35.933 37.3616H33.1547L32.5521 38.8329H31.0808L33.8982 32.212ZM35.4165 36.086L34.5399 33.9573L33.6634 36.086H35.4165Z" fill="white"/>
<path d="M39.0642 32.2592H40.512V37.5183H43.7912V38.8331H39.0642V32.2592Z" fill="white"/>
<path d="M32.5908 23.2122C33.0447 22.4061 33.436 21.5609 33.9603 20.8096C34.7821 19.6357 35.7212 19.3383 37.0986 19.7609C37.7638 19.9644 38.429 20.2305 39.016 20.5983C40.7534 21.6861 42.5221 22.5861 44.8151 22.2183C44.3143 23.087 43.8995 23.8226 43.4534 24.5426C43.3908 24.6444 43.1638 24.6992 43.0151 24.6913C41.583 24.5974 40.2447 24.9183 38.9064 25.4426C37.2473 26.0922 35.5569 26.687 33.7412 26.7496C31.7847 26.82 30.6812 26.0218 30.1334 24.1357C29.5543 22.1635 29.5464 20.1209 29.4603 18.0939C29.4369 17.5148 29.4603 16.9279 29.4603 16.2626C28.9751 18.1722 28.5447 19.9879 28.0517 21.7957C26.7369 26.5774 22.409 28.0722 18.7386 27.7513C18.5899 27.7357 18.449 27.6887 18.3395 27.6653C19.4508 27.1487 20.6169 26.7026 21.6969 26.1C25.3673 24.0574 27.6134 20.9896 28.3099 16.7948C28.6073 15.0026 29.0456 13.2339 29.429 11.4418C29.969 11.4966 30.063 11.8879 30.1021 12.2166C30.2508 13.3435 30.3603 14.4783 30.4464 15.6131C30.5873 17.5461 30.6577 19.4792 30.8377 21.4044C30.9003 22.0853 31.1586 22.7661 31.409 23.4157C31.6673 24.0731 32.1682 24.4409 32.9351 24.5035C34.4456 24.6287 35.9403 24.6444 37.3803 24.1357C37.9203 23.94 38.4212 23.627 39.0786 23.3061C37.9282 22.6566 36.8951 22.2261 35.7603 22.0461C34.469 21.8348 33.6082 22.5783 32.7395 23.3296C32.6847 23.2826 32.6377 23.2435 32.5908 23.2122Z" fill="white"/>
<path d="M18.4803 8.44446C18.942 9.22707 19.435 10.0488 19.9124 10.8784C19.9594 10.9645 19.9907 11.1053 19.9516 11.1836C19.2237 12.7488 19.4663 14.3766 19.5759 16.0045C19.7168 18.0158 19.842 20.0192 19.9672 22.0305C20.0376 23.0401 19.7637 23.9636 19.122 24.7384C18.5272 25.4505 17.9246 26.1705 17.2046 26.7497C15.6785 27.9784 13.9333 28.0801 12.149 27.3836C10.1768 26.6166 9.32374 24.6679 9.94982 22.4375C10.2237 21.4592 10.7168 20.5905 11.4211 19.8314C11.3663 20.0036 11.3037 20.1679 11.249 20.3479C11.1081 20.8175 10.9437 21.2871 10.8498 21.7723C10.4194 23.8853 11.0376 24.8558 13.1272 25.3097C14.7707 25.6697 16.3281 25.4349 17.7837 24.5584C18.3472 24.2218 18.715 23.7366 18.7229 23.0871C18.7307 21.4984 18.8168 19.894 18.6368 18.321C18.3472 15.7384 17.8776 13.1792 17.4942 10.6123C17.4707 10.4323 17.4629 10.2132 17.5411 10.0645C17.862 9.46185 18.2063 8.89837 18.4803 8.44446Z" fill="white"/>
<path d="M20.1244 13.4219C22.9966 14.3375 25.6575 17.421 25.1253 21.3575C24.9923 20.9975 24.8827 20.7549 24.8044 20.4967C24.2644 18.7827 23.2862 17.5227 21.4627 17.0297C20.7192 16.8262 20.1792 16.341 20.1323 15.5114C20.0853 14.8227 20.1244 14.1419 20.1244 13.4219Z" fill="white"/>
<path d="M23.5744 68.2077L22.7329 69.3871L23.6089 70.6217H23.1088L22.4708 69.7009L21.8363 70.6217H21.35L22.2225 69.394L21.3845 68.2077H21.8846L22.4812 69.0802L23.0881 68.2077H23.5744ZM24.8331 68.1904H25.2262L26.2884 70.6217H25.84L25.5952 70.0389H24.4537L24.2054 70.6217H23.7709L24.8331 68.1904ZM25.44 69.663L25.0227 68.6974L24.6089 69.663H25.44ZM28.88 70.6217H28.4076L27.6454 68.7767L26.8867 70.6217H26.4281L27.4626 68.1904H27.842L28.88 70.6217ZM30.0834 68.1904H30.4766L31.5387 70.6217H31.0904L30.8456 70.0389H29.7041L29.4558 70.6217H29.0213L30.0834 68.1904ZM30.6904 69.663L30.2731 68.6974L29.8593 69.663H30.6904ZM34.1304 70.6217H33.6579L32.8958 68.7767L32.1371 70.6217H31.6784L32.713 68.1904H33.0924L34.1304 70.6217Z" fill="#75B051"/>
</svg>
