<svg width="54" height="82" viewBox="0 0 54 82" fill="none" xmlns="http://www.w3.org/2000/svg">
<circle cx="27" cy="27" r="27" fill="#75B051"/>
<path d="M29.7623 44.4889C29.7623 44.4889 28.3458 38.048 32.0162 34.5889C35.6866 31.1297 41.5875 29.9402 41.5875 29.9402C41.5875 29.9402 43.7788 36.7019 39.2475 41.155C34.7162 45.608 29.7623 44.4889 29.7623 44.4889Z" stroke="white" stroke-width="0.287384" stroke-miterlimit="10"/>
<path d="M27.3207 49.349C27.3207 49.349 28.8155 46.8055 30.9364 42.7203C33.0651 38.6351 35.6399 35.6299 35.6399 35.6299" stroke="white" stroke-width="0.287384" stroke-miterlimit="10"/>
<path d="M24.2601 45.342C24.2601 45.342 27.6096 38.1107 24.174 33.0785C20.7383 28.0464 14.094 25.1116 14.094 25.1116C14.094 25.1116 9.75052 32.515 13.9375 38.9481C18.1244 45.3811 24.2601 45.342 24.2601 45.342Z" stroke="white" stroke-width="0.287384" stroke-miterlimit="10"/>
<path d="M28.0801 50.5696C28.0801 50.5696 25.9123 47.7444 22.3045 43.5027C18.6966 39.2609 16.5132 35.0114 16.5132 35.0114" stroke="white" stroke-width="0.287384" stroke-miterlimit="10"/>
<path d="M14.211 11.3232L12.8884 11.6519L12.5441 10.2902L14.7197 9.64062H15.8545V17.2632H14.211V11.3232V11.3232Z" fill="white"/>
<path d="M20.7927 17.3948C20.2919 17.3948 19.8301 17.2931 19.4153 17.0974C19.0006 16.9018 18.6484 16.6279 18.3588 16.2757C18.0692 15.9235 17.8423 15.5166 17.6858 15.0392C17.5293 14.5618 17.451 14.0531 17.451 13.5052V13.4818C17.451 12.9339 17.5292 12.4252 17.6936 11.9479C17.8579 11.4705 18.0849 11.0557 18.3823 10.7035C18.6797 10.3513 19.0319 10.0696 19.4466 9.87394C19.8614 9.67046 20.3232 9.56873 20.824 9.56873C21.3249 9.56873 21.7788 9.67046 22.1936 9.86612C22.6084 10.0618 22.9606 10.3357 23.2501 10.6879C23.5397 11.04 23.7666 11.447 23.931 11.9244C24.0953 12.4018 24.1736 12.9105 24.1736 13.4583V13.4818C24.1736 14.0296 24.0953 14.5383 23.931 15.0157C23.7666 15.4931 23.5397 15.9079 23.2423 16.26C22.9449 16.6122 22.5927 16.8939 22.1779 17.0896C21.7553 17.2931 21.2936 17.3948 20.7927 17.3948ZM20.8084 15.8766C21.0588 15.8766 21.2858 15.8139 21.4892 15.6966C21.6927 15.5792 21.8649 15.4148 22.0058 15.2035C22.1466 14.9922 22.2562 14.7418 22.3345 14.4522C22.4127 14.1626 22.4519 13.8418 22.4519 13.4974V13.4739C22.4519 13.1296 22.4127 12.8087 22.3345 12.5192C22.2562 12.2296 22.1388 11.9713 21.9901 11.76C21.8414 11.5409 21.6693 11.3766 21.4579 11.2513C21.2545 11.1261 21.0275 11.0713 20.7849 11.0713C20.5345 11.0713 20.3075 11.1339 20.104 11.2513C19.9006 11.3687 19.7284 11.5331 19.5875 11.7444C19.4466 11.9557 19.3371 12.2061 19.2588 12.4957C19.1806 12.7852 19.1414 13.1061 19.1414 13.4505V13.4739C19.1414 13.8183 19.1806 14.1392 19.2588 14.4287C19.3371 14.7261 19.4466 14.9766 19.5953 15.1879C19.7362 15.3992 19.9162 15.5635 20.1197 15.6887C20.331 15.8218 20.5579 15.8766 20.8084 15.8766Z" fill="white"/>
<path d="M28.6807 17.3948C28.1798 17.3948 27.7181 17.2931 27.3033 17.0974C26.8885 16.9018 26.5363 16.6279 26.2468 16.2757C25.9572 15.9235 25.7302 15.5166 25.5737 15.0392C25.4172 14.5618 25.3389 14.0531 25.3389 13.5052V13.4818C25.3389 12.9339 25.4172 12.4252 25.5815 11.9479C25.7459 11.4705 25.9728 11.0557 26.2702 10.7035C26.5676 10.3513 26.9198 10.0696 27.3346 9.87394C27.7494 9.67046 28.2111 9.56873 28.712 9.56873C29.2128 9.56873 29.6668 9.67046 30.0815 9.86612C30.4963 10.0618 30.8485 10.3357 31.1381 10.6879C31.4276 11.04 31.6546 11.447 31.8189 11.9244C31.9833 12.4018 32.0615 12.9105 32.0615 13.4583V13.4818C32.0615 14.0296 31.9833 14.5383 31.8189 15.0157C31.6546 15.4931 31.4276 15.9079 31.1302 16.26C30.8328 16.6122 30.4807 16.8939 30.0659 17.0896C29.6511 17.2931 29.1894 17.3948 28.6807 17.3948ZM28.7041 15.8766C28.9546 15.8766 29.1815 15.8139 29.385 15.6966C29.5885 15.5792 29.7607 15.4148 29.9015 15.2035C30.0424 14.9922 30.152 14.7418 30.2302 14.4522C30.3085 14.1626 30.3476 13.8418 30.3476 13.4974V13.4739C30.3476 13.1296 30.3085 12.8087 30.2302 12.5192C30.152 12.2296 30.0346 11.9713 29.8859 11.76C29.7372 11.5409 29.565 11.3766 29.3537 11.2513C29.1502 11.1418 28.9311 11.0792 28.6807 11.0792C28.4302 11.0792 28.2033 11.1418 27.9998 11.2592C27.7963 11.3766 27.6241 11.5409 27.4833 11.7522C27.3424 11.9635 27.2328 12.2139 27.1546 12.5035C27.0763 12.7931 27.0372 13.1139 27.0372 13.4583V13.4818C27.0372 13.8261 27.0763 14.147 27.1546 14.4366C27.2328 14.7339 27.3424 14.9844 27.4911 15.1957C27.632 15.407 27.812 15.5713 28.0155 15.6966C28.2268 15.8218 28.4537 15.8766 28.7041 15.8766Z" fill="white"/>
<path d="M34.9586 13.4741C34.6846 13.4741 34.4342 13.4271 34.2151 13.3254C33.9881 13.2237 33.8003 13.0906 33.636 12.9185C33.4716 12.7463 33.3464 12.5428 33.2603 12.3158C33.1742 12.0889 33.1273 11.8385 33.1273 11.5724V11.5489C33.1273 11.2828 33.1742 11.0324 33.2603 10.7976C33.3542 10.5628 33.4794 10.3593 33.636 10.1793C33.8003 9.99932 33.996 9.86628 34.2229 9.76454C34.4499 9.6628 34.7003 9.61584 34.9742 9.61584C35.2481 9.61584 35.4986 9.6628 35.7177 9.76454C35.9447 9.86628 36.1325 9.99932 36.2968 10.1715C36.4612 10.3437 36.5864 10.5471 36.6725 10.7741C36.7586 11.0011 36.8055 11.2515 36.8055 11.5176V11.5411C36.8055 11.8071 36.7586 12.0576 36.6725 12.2924C36.5864 12.5271 36.4533 12.7306 36.2968 12.9106C36.1325 13.0906 35.9368 13.2237 35.7099 13.3254C35.4829 13.4271 35.2325 13.4741 34.9586 13.4741ZM39.4116 9.69411H40.6951L37.6664 13.7715L35.1699 17.2619H33.8864L36.9151 13.1845L39.4116 9.69411ZM34.9586 10.5941C34.7316 10.5941 34.5516 10.688 34.442 10.868C34.3246 11.0558 34.2699 11.2671 34.2699 11.5254V11.5489C34.2699 11.7993 34.3325 12.0263 34.4655 12.2141C34.5986 12.4019 34.7707 12.5037 34.982 12.5037C35.209 12.5037 35.389 12.4098 35.4986 12.2219C35.6081 12.0341 35.6707 11.815 35.6707 11.5724V11.5489C35.6707 11.2985 35.6081 11.0715 35.4751 10.8837C35.3499 10.688 35.1699 10.5941 34.9586 10.5941ZM39.6073 17.348C39.3333 17.348 39.0829 17.3011 38.8638 17.1993C38.6368 17.0976 38.449 16.9645 38.2846 16.7845C38.1203 16.6124 37.9951 16.4089 37.909 16.1819C37.8229 15.955 37.776 15.7045 37.776 15.4385V15.415C37.776 15.1489 37.8229 14.8985 37.909 14.6637C37.9951 14.4289 38.1281 14.2254 38.2846 14.0454C38.449 13.8654 38.6446 13.7324 38.8716 13.6306C39.0986 13.5289 39.349 13.4819 39.6229 13.4819C39.8968 13.4819 40.1473 13.5289 40.3664 13.6306C40.5933 13.7324 40.7812 13.8654 40.9455 14.0454C41.1099 14.2176 41.2351 14.4211 41.3212 14.648C41.4073 14.875 41.4542 15.1254 41.4542 15.3915V15.415C41.4542 15.6811 41.4073 15.9315 41.3212 16.1663C41.2273 16.4011 41.102 16.6045 40.9455 16.7845C40.7812 16.9645 40.5855 17.0976 40.3586 17.1993C40.1316 17.3011 39.8812 17.348 39.6073 17.348ZM39.6307 16.3698C39.8577 16.3698 40.0377 16.2758 40.1473 16.088C40.2647 15.9002 40.3194 15.6811 40.3194 15.4385V15.415C40.3194 15.1645 40.2568 14.9376 40.1238 14.7498C39.9907 14.5619 39.8186 14.4602 39.6073 14.4602C39.3803 14.4602 39.2003 14.5541 39.0907 14.7341C38.9733 14.9141 38.9186 15.1332 38.9186 15.3915V15.415C38.9186 15.6654 38.9812 15.8924 39.1142 16.0802C39.2394 16.268 39.4116 16.3698 39.6307 16.3698Z" fill="white"/>
<path d="M12.5995 19.6027H13.2334V20.7374H14.3995V19.6027H15.0334V22.4748H14.3995V21.3244H13.2334V22.4748H12.5995V19.6027Z" fill="white"/>
<path d="M16.6996 19.5782H17.2787L18.5074 22.4661H17.85L17.5917 21.8243H16.3787L16.1204 22.4661H15.4787L16.6996 19.5782ZM17.3648 21.2687L16.9813 20.3374L16.5978 21.2687H17.3648Z" fill="white"/>
<path d="M19.2517 20.1809H18.383V19.6018H20.7621V20.1809H19.8856V22.4662H19.2517V20.1809Z" fill="white"/>
<path d="M21.5204 22.4662L22.0839 21.4801L20.9804 19.594H21.6926L22.4361 20.9088L23.117 19.594H23.8213L22.2248 22.4662H21.5204V22.4662Z" fill="white"/>
<path d="M24.2058 19.6018H25.3797C25.5519 19.6018 25.7084 19.6253 25.8415 19.6722C25.9745 19.7192 26.0919 19.7896 26.1858 19.8757C26.2797 19.9618 26.3502 20.0714 26.4049 20.1888C26.4519 20.314 26.4832 20.447 26.4832 20.5957V20.6035C26.4832 20.7679 26.4519 20.9166 26.3893 21.0418C26.3267 21.167 26.2484 21.2688 26.1389 21.3549C26.0293 21.4409 25.9119 21.5035 25.771 21.5427C25.6302 21.5818 25.4815 21.6053 25.3171 21.6053H24.8397V22.4662H24.2058V19.6018V19.6018ZM25.3328 21.0418C25.4893 21.0418 25.6145 21.0027 25.7006 20.9166C25.7867 20.8305 25.8336 20.7288 25.8336 20.6114V20.6035C25.8336 20.4627 25.7867 20.3531 25.6928 20.2827C25.5989 20.2122 25.4736 20.1731 25.3171 20.1731H24.8319V21.0496H25.3328V21.0418Z" fill="white"/>
<path d="M27.6412 19.5782H28.2204L29.4491 22.4661H28.7917L28.5334 21.8243H27.3204L27.0621 22.4661H26.4125L27.6412 19.5782ZM28.3065 21.2687L27.923 20.3374L27.5395 21.2687H28.3065Z" fill="white"/>
<path d="M32.5252 22.4661H31.8287L31.0304 20.4626L30.2478 22.4661H29.5669L30.7643 19.5782H31.32L32.5252 22.4661Z" fill="white"/>
<path d="M32.9627 19.6018H33.5966V20.5018H34.1053C34.2775 20.5018 34.434 20.5253 34.5748 20.5644C34.7157 20.6035 34.8331 20.6662 34.9349 20.7444C35.0366 20.8227 35.107 20.9244 35.1618 21.0496C35.2166 21.1748 35.2401 21.3079 35.2401 21.4722C35.2401 21.7775 35.1383 22.0201 34.9427 22.2001C34.747 22.3801 34.4575 22.4662 34.0818 22.4662H32.9705V19.6018H32.9627ZM34.0896 21.8948C34.2462 21.8948 34.3714 21.8635 34.4575 21.7931C34.5514 21.7227 34.5905 21.6209 34.5905 21.4801C34.5905 21.347 34.5514 21.2453 34.4653 21.1748C34.3792 21.1044 34.254 21.0653 34.0896 21.0653H33.5888V21.8948H34.0896Z" fill="white"/>
<path d="M35.7253 19.6018H36.3592V20.7366H37.5253V19.6018H38.1592V22.474H37.5253V21.3235H36.3514V22.474H35.7253V19.6018Z" fill="white"/>
<path d="M40.234 22.5131C40.0148 22.5131 39.8114 22.474 39.6235 22.3957C39.4357 22.3174 39.2792 22.2157 39.1383 22.0827C39.0053 21.9496 38.8957 21.7931 38.8253 21.6131C38.747 21.4331 38.7157 21.2453 38.7157 21.034V21.0261C38.7157 20.8227 38.7548 20.627 38.8331 20.447C38.9114 20.267 39.0131 20.1105 39.154 19.9774C39.287 19.8444 39.4514 19.7348 39.6392 19.6566C39.827 19.5783 40.0305 19.5392 40.2496 19.5392C40.4687 19.5392 40.6722 19.5783 40.86 19.6566C41.0479 19.7348 41.2044 19.8366 41.3453 19.9696C41.4783 20.1027 41.5879 20.2592 41.6583 20.4392C41.7287 20.6192 41.7679 20.807 41.7679 21.0183V21.0261C41.7679 21.2296 41.7287 21.4253 41.6505 21.6053C41.5722 21.7853 41.4705 21.9418 41.3296 22.0748C41.1966 22.2079 41.0322 22.3174 40.8444 22.3957C40.6566 22.474 40.4531 22.5131 40.234 22.5131ZM40.2418 21.934C40.367 21.934 40.4844 21.9105 40.5861 21.8635C40.6879 21.8166 40.7818 21.754 40.86 21.6679C40.9383 21.5896 40.9931 21.4879 41.04 21.3861C41.0792 21.2766 41.1027 21.1592 41.1027 21.0418V21.034C41.1027 20.9088 41.0792 20.7914 41.04 20.6818C41.0009 20.5722 40.9383 20.4783 40.86 20.3922C40.7818 20.3061 40.6879 20.2435 40.5861 20.1966C40.4766 20.1496 40.367 20.1261 40.234 20.1261C40.1087 20.1261 39.9914 20.1496 39.8818 20.1966C39.78 20.2435 39.6861 20.3061 39.6079 20.3922C39.5296 20.4705 39.4748 20.5722 39.4279 20.674C39.3809 20.7757 39.3653 20.9009 39.3653 21.0183V21.0261C39.3653 21.1514 39.3887 21.2609 39.4279 21.3705C39.467 21.4801 39.5296 21.574 39.6079 21.6601C39.6861 21.7383 39.78 21.8088 39.8818 21.8557C39.9914 21.9105 40.1087 21.934 40.2418 21.934Z" fill="white"/>
<path d="M16.3768 68.1904H16.7699L17.8321 70.6217H17.3838L17.1389 70.0389H15.9974L15.7491 70.6217H15.3146L16.3768 68.1904ZM16.9837 69.663L16.5664 68.6974L16.1526 69.663H16.9837ZM18.246 68.2077H19.9979V68.587H18.6633V69.1802H19.3324C19.4657 69.1802 19.5864 69.1951 19.6945 69.225C19.8025 69.2549 19.8945 69.2997 19.9703 69.3595C20.0462 69.417 20.1048 69.4894 20.1462 69.5768C20.1876 69.6641 20.2083 69.7653 20.2083 69.8803V69.8837C20.2083 70.001 20.1865 70.1056 20.1428 70.1975C20.1014 70.2895 20.0405 70.3665 19.96 70.4286C19.8818 70.4907 19.7864 70.5389 19.6738 70.5734C19.5634 70.6056 19.4404 70.6217 19.3048 70.6217H18.246V68.2077ZM19.3151 70.2424C19.4531 70.2424 19.5646 70.2136 19.6496 70.1561C19.737 70.0964 19.7807 70.009 19.7807 69.894V69.8906C19.7807 69.7756 19.7393 69.6906 19.6565 69.6354C19.5738 69.5802 19.4623 69.5526 19.322 69.5526H18.6633V70.2424H19.3151ZM21.8017 70.6631C21.6247 70.6631 21.4615 70.6309 21.312 70.5665C21.1626 70.5022 21.0327 70.4148 20.9224 70.3044C20.8143 70.1918 20.7292 70.0596 20.6672 69.9078C20.6051 69.7561 20.574 69.594 20.574 69.4216V69.4147C20.574 69.2423 20.6039 69.0813 20.6637 68.9319C20.7258 68.7801 20.812 68.648 20.9224 68.5353C21.0327 68.4203 21.1638 68.3307 21.3155 68.2663C21.4672 68.1996 21.6339 68.1663 21.8155 68.1663C21.9282 68.1663 22.0294 68.1755 22.119 68.1939C22.211 68.2123 22.2949 68.2387 22.3708 68.2732C22.4466 68.3054 22.5168 68.3445 22.5811 68.3905C22.6455 68.4364 22.7064 68.487 22.7639 68.5422L22.4915 68.856C22.3926 68.7664 22.2891 68.6951 22.1811 68.6422C22.0753 68.587 21.9523 68.5594 21.8121 68.5594C21.6971 68.5594 21.5914 68.5813 21.4948 68.625C21.3983 68.6686 21.3143 68.7296 21.2431 68.8077C21.1741 68.8836 21.1189 68.9733 21.0775 69.0767C21.0385 69.1802 21.0189 69.2905 21.0189 69.4078V69.4147C21.0189 69.5319 21.0385 69.6434 21.0775 69.7492C21.1166 69.8527 21.1718 69.9435 21.2431 70.0216C21.3143 70.0975 21.3983 70.1584 21.4948 70.2044C21.5937 70.2481 21.7006 70.2699 21.8155 70.2699C21.9627 70.2699 22.0891 70.2424 22.1949 70.1872C22.3006 70.132 22.4053 70.0561 22.5087 69.9596L22.7812 70.2355C22.7191 70.3021 22.6536 70.3619 22.5846 70.4148C22.5179 70.4654 22.4455 70.5102 22.3673 70.5493C22.2891 70.5861 22.2029 70.6137 22.1087 70.632C22.0167 70.6527 21.9144 70.6631 21.8017 70.6631ZM24.3148 70.6631C24.1286 70.6631 23.9585 70.6309 23.8044 70.5665C23.6504 70.4999 23.5182 70.4102 23.4079 70.2975C23.2975 70.1849 23.2113 70.0538 23.1492 69.9044C23.0871 69.7527 23.0561 69.5917 23.0561 69.4216V69.4147C23.0561 69.2446 23.0871 69.0848 23.1492 68.9353C23.2113 68.7836 23.2986 68.6514 23.4113 68.5387C23.524 68.4238 23.6573 68.333 23.8113 68.2663C23.9654 68.1996 24.1355 68.1663 24.3217 68.1663C24.508 68.1663 24.6781 68.1996 24.8321 68.2663C24.9862 68.3307 25.1184 68.4192 25.2287 68.5318C25.3391 68.6445 25.4253 68.7767 25.4874 68.9284C25.5494 69.0779 25.5805 69.2377 25.5805 69.4078V69.4147C25.5805 69.5848 25.5494 69.7458 25.4874 69.8975C25.4253 70.0469 25.3379 70.1791 25.2253 70.2941C25.1126 70.4067 24.9793 70.4964 24.8252 70.5631C24.6712 70.6298 24.5011 70.6631 24.3148 70.6631ZM24.3217 70.2699C24.4413 70.2699 24.5505 70.2481 24.6494 70.2044C24.7505 70.1584 24.8367 70.0975 24.908 70.0216C24.9793 69.9458 25.0344 69.8561 25.0735 69.7527C25.1149 69.6492 25.1356 69.5388 25.1356 69.4216V69.4147C25.1356 69.2974 25.1149 69.1871 25.0735 69.0836C25.0344 68.9802 24.9781 68.8894 24.9045 68.8112C24.8333 68.733 24.7471 68.6721 24.6459 68.6284C24.5447 68.5824 24.4344 68.5594 24.3148 68.5594C24.1953 68.5594 24.0849 68.5824 23.9838 68.6284C23.8849 68.6721 23.7998 68.7319 23.7286 68.8077C23.6573 68.8836 23.601 68.9733 23.5596 69.0767C23.5205 69.1802 23.501 69.2905 23.501 69.4078V69.4147C23.501 69.5319 23.5205 69.6423 23.5596 69.7458C23.601 69.8492 23.6573 69.94 23.7286 70.0182C23.8021 70.0964 23.8895 70.1584 23.9907 70.2044C24.0918 70.2481 24.2022 70.2699 24.3217 70.2699ZM28.1865 70.6217H27.714L26.9519 68.7767L26.1932 70.6217H25.7345L26.7691 68.1904H27.1484L28.1865 70.6217ZM28.602 68.2077H29.0261V69.2112H29.4917C29.5147 69.0664 29.5595 68.9307 29.6262 68.8043C29.6952 68.6778 29.7814 68.5675 29.8848 68.4732C29.9906 68.379 30.1113 68.3042 30.247 68.2491C30.3849 68.1939 30.5343 68.1663 30.6953 68.1663C30.8746 68.1663 31.0378 68.1996 31.185 68.2663C31.3344 68.333 31.462 68.4238 31.5678 68.5387C31.6758 68.6514 31.7597 68.7836 31.8195 68.9353C31.8793 69.0848 31.9092 69.2423 31.9092 69.4078V69.4147C31.9092 69.5802 31.8793 69.7389 31.8195 69.8906C31.7597 70.0423 31.6758 70.1757 31.5678 70.2906C31.4597 70.4033 31.331 70.4941 31.1815 70.5631C31.0321 70.6298 30.8677 70.6631 30.6884 70.6631C30.5251 70.6631 30.3745 70.6355 30.2366 70.5803C30.0987 70.5251 29.9768 70.4504 29.8711 70.3562C29.7676 70.2596 29.6825 70.1469 29.6159 70.0182C29.5492 69.8895 29.5055 69.7515 29.4848 69.6044H29.0261V70.6217H28.602V68.2077ZM30.6953 70.2699C30.8102 70.2699 30.9148 70.2481 31.0091 70.2044C31.1034 70.1584 31.1838 70.0975 31.2505 70.0216C31.3195 69.9435 31.3723 69.8538 31.4091 69.7527C31.4459 69.6492 31.4643 69.5388 31.4643 69.4216V69.4147C31.4643 69.2974 31.4448 69.1871 31.4057 69.0836C31.3689 68.9802 31.316 68.8905 31.247 68.8146C31.1804 68.7365 31.0988 68.6744 31.0022 68.6284C30.9079 68.5824 30.8033 68.5594 30.6884 68.5594C30.5734 68.5594 30.4688 68.5824 30.3745 68.6284C30.2803 68.6721 30.1987 68.733 30.1297 68.8112C30.063 68.8871 30.0113 68.9767 29.9745 69.0802C29.9377 69.1813 29.9193 69.2905 29.9193 69.4078V69.4147C29.9193 69.5319 29.9377 69.6423 29.9745 69.7458C30.0136 69.8492 30.0665 69.94 30.1331 70.0182C30.2021 70.0941 30.2837 70.155 30.378 70.201C30.4746 70.247 30.5803 70.2699 30.6953 70.2699ZM32.8895 68.6008H32.1205V68.2077H34.0827V68.6008H33.3137V70.6217H32.8895V68.6008ZM34.5225 68.2077H34.9467V69.2112H36.0985V68.2077H36.5227V70.6217H36.0985V69.6044H34.9467V70.6217H34.5225V68.2077ZM38.2945 70.6631C38.1083 70.6631 37.9381 70.6309 37.7841 70.5665C37.6301 70.4999 37.4979 70.4102 37.3875 70.2975C37.2772 70.1849 37.1909 70.0538 37.1289 69.9044C37.0668 69.7527 37.0357 69.5917 37.0357 69.4216V69.4147C37.0357 69.2446 37.0668 69.0848 37.1289 68.9353C37.1909 68.7836 37.2783 68.6514 37.391 68.5387C37.5036 68.4238 37.637 68.333 37.791 68.2663C37.945 68.1996 38.1152 68.1663 38.3014 68.1663C38.4876 68.1663 38.6577 68.1996 38.8118 68.2663C38.9658 68.3307 39.098 68.4192 39.2084 68.5318C39.3187 68.6445 39.4049 68.7767 39.467 68.9284C39.5291 69.0779 39.5601 69.2377 39.5601 69.4078V69.4147C39.5601 69.5848 39.5291 69.7458 39.467 69.8975C39.4049 70.0469 39.3176 70.1791 39.2049 70.2941C39.0923 70.4067 38.9589 70.4964 38.8049 70.5631C38.6508 70.6298 38.4807 70.6631 38.2945 70.6631ZM38.3014 70.2699C38.4209 70.2699 38.5301 70.2481 38.629 70.2044C38.7302 70.1584 38.8164 70.0975 38.8877 70.0216C38.9589 69.9458 39.0141 69.8561 39.0532 69.7527C39.0946 69.6492 39.1153 69.5388 39.1153 69.4216V69.4147C39.1153 69.2974 39.0946 69.1871 39.0532 69.0836C39.0141 68.9802 38.9578 68.8894 38.8842 68.8112C38.8129 68.733 38.7267 68.6721 38.6256 68.6284C38.5244 68.5824 38.414 68.5594 38.2945 68.5594C38.1749 68.5594 38.0646 68.5824 37.9634 68.6284C37.8646 68.6721 37.7795 68.7319 37.7082 68.8077C37.637 68.8836 37.5806 68.9733 37.5392 69.0767C37.5002 69.1802 37.4806 69.2905 37.4806 69.4078V69.4147C37.4806 69.5319 37.5002 69.6423 37.5392 69.7458C37.5806 69.8492 37.637 69.94 37.7082 70.0182C37.7818 70.0964 37.8692 70.1584 37.9703 70.2044C38.0715 70.2481 38.1818 70.2699 38.3014 70.2699ZM15.114 72.2077H15.5382V73.2112H16.69V72.2077H17.1142V74.6217H16.69V73.6044H15.5382V74.6217H15.114V72.2077ZM18.5894 72.1904H18.9825L20.0447 74.6217H19.5964L19.3515 74.0389H18.2101L17.9618 74.6217H17.5272L18.5894 72.1904ZM19.1964 73.663L18.7791 72.6974L18.3652 73.663H19.1964ZM20.7419 72.6008H19.9729V72.2077H21.9351V72.6008H21.1661V74.6217H20.7419V72.6008ZM22.637 74.6217L23.1198 73.7906L22.1542 72.2077H22.637L23.3543 73.4112L24.0096 72.2077H24.482L23.1095 74.6217H22.637ZM24.8503 72.2077H25.8021C25.9423 72.2077 26.0688 72.2272 26.1814 72.2663C26.2964 72.3031 26.3929 72.3571 26.4711 72.4284C26.5516 72.4997 26.6125 72.5847 26.6539 72.6836C26.6976 72.7824 26.7194 72.8928 26.7194 73.0147V73.0216C26.7194 73.1572 26.6941 73.2767 26.6435 73.3802C26.593 73.4814 26.524 73.5664 26.4366 73.6354C26.3493 73.7044 26.2469 73.7573 26.1297 73.794C26.0124 73.8285 25.8871 73.8458 25.7538 73.8458H25.2744V74.6217H24.8503V72.2077ZM25.7676 73.463C25.9285 73.463 26.055 73.4227 26.1469 73.3423C26.2412 73.2618 26.2883 73.1583 26.2883 73.0319V73.025C26.2883 72.8825 26.2412 72.7756 26.1469 72.7043C26.0527 72.6307 25.9262 72.5939 25.7676 72.5939H25.2744V73.463H25.7676ZM27.7666 72.1904H28.1597L29.2219 74.6217H28.7736L28.5287 74.0389H27.3872L27.1389 74.6217H26.7044L27.7666 72.1904ZM28.3735 73.663L27.9563 72.6974L27.5424 73.663H28.3735ZM31.8136 74.6217H31.3411L30.579 72.7767L29.8203 74.6217H29.3616L30.3962 72.1904H30.7755L31.8136 74.6217ZM32.2291 72.2077H32.6532V73.0112H33.1636C33.3039 73.0112 33.4315 73.0284 33.5464 73.0629C33.6614 73.0974 33.7591 73.148 33.8396 73.2147C33.9223 73.2813 33.9856 73.3641 34.0292 73.463C34.0752 73.5595 34.0982 73.6722 34.0982 73.8009V73.8078C34.0982 73.9366 34.0752 74.0515 34.0292 74.1527C33.9856 74.2516 33.9212 74.3366 33.8361 74.4079C33.7534 74.4769 33.6522 74.5297 33.5326 74.5665C33.4154 74.6033 33.2832 74.6217 33.136 74.6217H32.2291V72.2077ZM33.1464 74.2355C33.305 74.2355 33.4315 74.1998 33.5257 74.1286C33.62 74.055 33.6671 73.9504 33.6671 73.8147V73.8113C33.6671 73.6756 33.6212 73.5722 33.5292 73.5009C33.4395 73.4296 33.3142 73.394 33.1533 73.394H32.6532V74.2355H33.1464ZM34.5461 72.2077H34.9703V73.2112H36.1221V72.2077H36.5463V74.6217H36.1221V73.6044H34.9703V74.6217H34.5461V72.2077ZM37.1662 72.2077H37.5904V73.0112H38.1008C38.241 73.0112 38.3686 73.0284 38.4836 73.0629C38.5986 73.0974 38.6963 73.148 38.7767 73.2147C38.8595 73.2813 38.9227 73.3641 38.9664 73.463C39.0124 73.5595 39.0354 73.6722 39.0354 73.8009V73.8078C39.0354 73.9366 39.0124 74.0515 38.9664 74.1527C38.9227 74.2516 38.8583 74.3366 38.7733 74.4079C38.6905 74.4769 38.5894 74.5297 38.4698 74.5665C38.3526 74.6033 38.2204 74.6217 38.0732 74.6217H37.1662V72.2077ZM39.432 72.2077H39.8596V74.6217H39.432V72.2077ZM38.0836 74.2355C38.2422 74.2355 38.3686 74.1998 38.4629 74.1286C38.5572 74.055 38.6043 73.9504 38.6043 73.8147V73.8113C38.6043 73.6756 38.5583 73.5722 38.4664 73.5009C38.3767 73.4296 38.2514 73.394 38.0905 73.394H37.5904V74.2355H38.0836Z" fill="#75B051"/>
</svg>
