<svg width="54" height="73" viewBox="0 0 54 73" fill="none" xmlns="http://www.w3.org/2000/svg">
<ellipse cx="27" cy="26.4804" rx="27" ry="26.4804" fill="#75B051"/>
<path d="M21.5621 23.6175C21.163 23.6175 20.8108 23.5484 20.4977 23.4179C20.1847 23.2874 19.9421 23.1262 19.7464 22.9344C19.4804 22.6734 19.2847 22.3587 19.1438 21.9903C19.003 21.6218 18.9325 21.1536 18.9325 20.5933V20.5857C18.9325 19.5418 19.1517 18.7205 19.5899 18.1218C20.0282 17.5232 20.7012 17.1471 21.6169 17.0012L23.5108 16.6865L23.7377 17.9683L21.8673 18.2523C21.3821 18.3291 21.0064 18.4749 20.7482 18.6821C20.4899 18.8894 20.3256 19.158 20.263 19.4957C20.4664 19.3346 20.709 19.2041 20.9986 19.1043C21.2882 19.0045 21.609 18.9508 21.9534 18.9508C22.3212 18.9508 22.6499 19.0045 22.9395 19.112C23.229 19.2118 23.4717 19.3653 23.6595 19.5571C23.8473 19.749 24.0038 19.9793 24.0977 20.2479C24.1995 20.5166 24.2464 20.8083 24.2464 21.1383V21.146C24.2464 21.499 24.1838 21.8214 24.0508 22.1208C23.9256 22.4201 23.7377 22.6811 23.503 22.9037C23.2682 23.1262 22.9786 23.2951 22.6499 23.4256C22.329 23.5561 21.9612 23.6175 21.5621 23.6175ZM21.5856 22.4431C21.7734 22.4431 21.9456 22.4124 22.1021 22.3433C22.2586 22.2743 22.3917 22.1898 22.509 22.0747C22.6264 21.9596 22.7125 21.8291 22.7751 21.6679C22.8377 21.5067 22.869 21.3379 22.869 21.1536V21.146C22.869 20.9771 22.8456 20.8236 22.7908 20.6778C22.736 20.5319 22.6577 20.4091 22.556 20.3017C22.4543 20.1942 22.329 20.1098 22.1725 20.0561C22.0238 20.0023 21.8517 19.9716 21.656 19.9716C21.4447 19.9716 21.2569 20.0023 21.0925 20.0714C20.9282 20.1405 20.7951 20.2326 20.6856 20.34C20.576 20.4552 20.4899 20.5857 20.4351 20.7392C20.3804 20.8927 20.349 21.0539 20.349 21.2227V21.2304C20.349 21.3916 20.3804 21.5528 20.4351 21.6986C20.4977 21.8444 20.576 21.9749 20.6856 22.0824C20.7951 22.1898 20.9204 22.2819 21.0769 22.3433C21.2256 22.4124 21.3977 22.4431 21.5856 22.4431Z" fill="white"/>
<path d="M27.6896 23.6173C27.314 23.6173 26.9618 23.5559 26.6409 23.4331C26.3201 23.3103 26.0383 23.1338 25.8036 22.9112C25.5688 22.6809 25.3888 22.4123 25.2557 22.1052C25.1227 21.7982 25.0601 21.4528 25.0601 21.0691V21.0537C25.0601 20.7006 25.1227 20.3706 25.2401 20.0559C25.3653 19.7412 25.5296 19.4726 25.7488 19.2346C25.9679 19.0044 26.2262 18.8201 26.5314 18.682C26.8366 18.5438 27.1731 18.4824 27.5409 18.4824C27.9636 18.4824 28.3236 18.5592 28.6288 18.705C28.934 18.8508 29.1922 19.0504 29.3957 19.296C29.5992 19.5416 29.7479 19.8333 29.8496 20.1557C29.9514 20.478 29.9983 20.8158 29.9983 21.1612C29.9983 21.2149 29.9983 21.2763 29.9905 21.3377C29.9905 21.3991 29.9827 21.4605 29.9749 21.5296H26.4688C26.5392 21.852 26.6801 22.0899 26.8992 22.2511C27.1183 22.4123 27.3844 22.4967 27.7053 22.4967C27.9401 22.4967 28.1592 22.4583 28.347 22.3816C28.5349 22.2971 28.7305 22.1743 28.9262 21.9901L29.7401 22.7039C29.5053 22.9956 29.2157 23.2182 28.8792 23.3794C28.5427 23.5329 28.1436 23.6173 27.6896 23.6173ZM28.6053 20.6469C28.5583 20.3322 28.4488 20.0789 28.2688 19.887C28.0888 19.6951 27.8462 19.5954 27.5488 19.5954C27.2514 19.5954 27.0088 19.6875 26.8209 19.8794C26.6331 20.0712 26.5157 20.3245 26.4609 20.6469H28.6053V20.6469Z" fill="white"/>
<path d="M31.2425 21.9595C31.5008 22.1361 31.759 22.2742 32.0251 22.3586C32.2912 22.4507 32.5651 22.4891 32.839 22.4891C33.4416 22.4891 33.739 22.3203 33.739 21.9825V21.9749C33.739 21.8367 33.6686 21.7216 33.5356 21.6448C33.3947 21.5681 33.1912 21.5297 32.9095 21.5374H31.8373V20.5319H32.9016C33.1521 20.5319 33.3321 20.4935 33.4495 20.4167C33.5669 20.34 33.6216 20.2249 33.6216 20.0714V20.0637C33.6216 19.9255 33.5512 19.8104 33.4182 19.726C33.2773 19.6415 33.0816 19.6031 32.8234 19.6031C32.5338 19.6031 32.2756 19.6492 32.0408 19.7336C31.806 19.8257 31.579 19.9562 31.3521 20.1251L30.6008 19.2654C30.8982 19.0121 31.2269 18.8202 31.5947 18.6821C31.9625 18.5439 32.4008 18.4749 32.9173 18.4749C33.2303 18.4749 33.5121 18.5056 33.7703 18.5746C34.0286 18.6437 34.2477 18.7358 34.4277 18.8663C34.6077 18.9968 34.7486 19.1426 34.8503 19.3115C34.9521 19.4803 34.999 19.6722 34.999 19.8795V19.8871C34.999 20.1635 34.9286 20.386 34.7799 20.5626C34.639 20.7391 34.4356 20.8773 34.1851 20.9847C34.4669 21.0692 34.6938 21.2073 34.866 21.3839C35.0382 21.5604 35.1242 21.8137 35.1242 22.1284V22.1361C35.1242 22.3356 35.0773 22.5275 34.9756 22.704C34.8738 22.8806 34.7251 23.0418 34.5373 23.1722C34.3416 23.3104 34.1069 23.4102 33.8251 23.4869C33.5434 23.5637 33.2225 23.6021 32.8547 23.6021C32.3695 23.6021 31.939 23.5407 31.579 23.4179C31.219 23.295 30.8747 23.1108 30.5382 22.8652L31.2425 21.9595Z" fill="white"/>
<path d="M16.8192 28.1073H21.5462V29.3968H18.267V34.5547H16.8192V28.1073V28.1073Z" fill="white"/>
<path d="M22.6256 28.1073H24.183L25.9126 30.8321L27.6422 28.1073H29.1996V34.5547H27.7596V30.3485L25.9126 33.104H25.8735L24.0422 30.3792V34.5624H22.6256V28.1073V28.1073Z" fill="white"/>
<path d="M33.9737 34.67C33.465 34.67 33.0032 34.5856 32.5728 34.409C32.1424 34.2325 31.7824 33.9945 31.4693 33.7029C31.1563 33.4112 30.9215 33.0581 30.7493 32.6513C30.5771 32.2522 30.4911 31.8147 30.4911 31.3542V31.3388C30.4911 30.8783 30.5771 30.4485 30.7571 30.0417C30.9293 29.6349 31.1719 29.2895 31.485 28.9825C31.798 28.6754 32.1658 28.4375 32.5963 28.261C33.0267 28.0844 33.4963 28 33.9971 28C34.498 28 34.9676 28.0844 35.398 28.261C35.8285 28.4375 36.1885 28.6754 36.5015 28.9671C36.8145 29.2588 37.0493 29.6118 37.2215 30.0186C37.3937 30.4254 37.4798 30.8553 37.4798 31.3158V31.3312C37.4798 31.7917 37.3937 32.2215 37.2137 32.6283C37.0415 33.0274 36.7989 33.3805 36.4858 33.6875C36.1728 33.9869 35.805 34.2325 35.3745 34.409C34.9441 34.5856 34.4824 34.67 33.9737 34.67ZM33.9893 33.3652C34.2789 33.3652 34.545 33.3114 34.7876 33.204C35.0302 33.0965 35.2415 32.9584 35.4137 32.7741C35.5858 32.5899 35.7189 32.375 35.8206 32.1371C35.9145 31.8991 35.9693 31.6382 35.9693 31.3619V31.3465C35.9693 31.0702 35.9224 30.8092 35.8206 30.5636C35.7267 30.318 35.5858 30.1031 35.4058 29.9189C35.2258 29.7347 35.0145 29.5888 34.7719 29.4814C34.5293 29.3739 34.2632 29.3202 33.9737 29.3202C33.6763 29.3202 33.4102 29.3739 33.1676 29.4814C32.925 29.5811 32.7215 29.727 32.5493 29.9112C32.3771 30.0954 32.2441 30.3103 32.1424 30.5483C32.0485 30.7939 31.9937 31.0472 31.9937 31.3312V31.3465C31.9937 31.6228 32.0406 31.8838 32.1424 32.1294C32.2441 32.375 32.3771 32.5899 32.5571 32.7741C32.7371 32.9584 32.9485 33.1042 33.1832 33.2116C33.418 33.3191 33.6998 33.3652 33.9893 33.3652Z" fill="white"/>
<path d="M19.736 66.9062H21.4879V67.2855H20.1533V67.8787H20.8223C20.9556 67.8787 21.0763 67.8936 21.1844 67.9235C21.2925 67.9534 21.3844 67.9982 21.4603 68.058C21.5362 68.1155 21.5948 68.1879 21.6362 68.2753C21.6775 68.3626 21.6982 68.4638 21.6982 68.5787V68.5822C21.6982 68.6994 21.6764 68.804 21.6327 68.896C21.5913 68.988 21.5304 69.065 21.4499 69.1271C21.3718 69.1891 21.2764 69.2374 21.1637 69.2719C21.0534 69.3041 20.9304 69.3202 20.7947 69.3202H19.736V66.9062ZM20.8051 68.9408C20.943 68.9408 21.0545 68.9121 21.1396 68.8546C21.2269 68.7949 21.2706 68.7075 21.2706 68.5925V68.5891C21.2706 68.4741 21.2292 68.3891 21.1465 68.3339C21.0637 68.2787 20.9522 68.2511 20.8119 68.2511H20.1533V68.9408H20.8051ZM22.1709 66.9062H23.9607V67.2855H22.5951V67.9132H23.8055V68.296H22.5951V68.9408H23.978V69.3202H22.1709V66.9062ZM24.3433 67.251C24.4054 67.1958 24.4709 67.1453 24.5399 67.0993C24.6089 67.051 24.6824 67.0096 24.7606 66.9751C24.8411 66.9407 24.9273 66.9142 25.0192 66.8958C25.1135 66.8751 25.2147 66.8648 25.3227 66.8648C25.4607 66.8648 25.5837 66.8809 25.6917 66.9131C25.8021 66.943 25.8952 66.9866 25.9711 67.0441C26.0469 67.0993 26.1056 67.1671 26.1469 67.2476C26.1883 67.3257 26.209 67.4143 26.209 67.5131V67.5166C26.209 67.666 26.1699 67.7867 26.0918 67.8787C26.0159 67.9683 25.9078 68.0362 25.7676 68.0821C25.917 68.1189 26.0377 68.1822 26.1297 68.2718C26.224 68.3615 26.2711 68.4879 26.2711 68.6512V68.6546C26.2711 68.7558 26.2481 68.85 26.2021 68.9374C26.1584 69.0225 26.0941 69.0972 26.009 69.1616C25.9262 69.2236 25.8239 69.2731 25.7021 69.3098C25.5802 69.3443 25.4423 69.3616 25.2882 69.3616C25.0721 69.3616 24.8836 69.3282 24.7227 69.2616C24.5617 69.1926 24.4215 69.1064 24.3019 69.0029L24.5537 68.696C24.6571 68.7788 24.7686 68.8477 24.8882 68.9029C25.0101 68.9558 25.1468 68.9822 25.2986 68.9822C25.3768 68.9822 25.4492 68.9742 25.5158 68.9581C25.5825 68.942 25.64 68.919 25.6883 68.8891C25.7366 68.8569 25.7733 68.819 25.7986 68.7753C25.8262 68.7293 25.84 68.6787 25.84 68.6236V68.6201C25.84 68.5098 25.7906 68.4259 25.6917 68.3684C25.5952 68.3086 25.4607 68.2799 25.2882 68.2822H24.8537V67.9235H25.2951C25.4423 67.9235 25.5595 67.8936 25.6469 67.8338C25.7343 67.7718 25.7779 67.6856 25.7779 67.5752V67.5717C25.7779 67.4706 25.7366 67.3913 25.6538 67.3338C25.571 67.274 25.4572 67.2441 25.3124 67.2441C25.1721 67.2441 25.0434 67.2729 24.9261 67.3303C24.8112 67.3855 24.7031 67.4556 24.602 67.5407L24.3433 67.251ZM27.8018 66.9062H29.4951V67.2924H28.226V69.3202H27.8018V66.9062ZM29.9336 66.9062H30.3854L31.1199 68.0477L31.8545 66.9062H32.3063V69.3202H31.8821V67.589L31.1199 68.727H31.1061L30.3509 67.5959V69.3202H29.9336V66.9062ZM34.0794 69.3616C33.8932 69.3616 33.7231 69.3294 33.569 69.265C33.415 69.1983 33.2828 69.1087 33.1724 68.996C33.0621 68.8834 32.9759 68.7523 32.9138 68.6029C32.8517 68.4511 32.8207 68.2902 32.8207 68.1201V68.1132C32.8207 67.943 32.8517 67.7833 32.9138 67.6338C32.9759 67.4821 33.0632 67.3499 33.1759 67.2372C33.2885 67.1223 33.4219 67.0315 33.5759 66.9648C33.73 66.8981 33.9001 66.8648 34.0863 66.8648C34.2725 66.8648 34.4427 66.8981 34.5967 66.9648C34.7507 67.0292 34.8829 67.1177 34.9933 67.2303C35.1036 67.343 35.1899 67.4752 35.2519 67.6269C35.314 67.7764 35.3451 67.9361 35.3451 68.1063V68.1132C35.3451 68.2833 35.314 68.4442 35.2519 68.596C35.1899 68.7454 35.1025 68.8776 34.9898 68.9926C34.8772 69.1052 34.7438 69.1949 34.5898 69.2616C34.4358 69.3282 34.2656 69.3616 34.0794 69.3616ZM34.0863 68.9684C34.2059 68.9684 34.3151 68.9466 34.4139 68.9029C34.5151 68.8569 34.6013 68.796 34.6726 68.7201C34.7438 68.6443 34.799 68.5546 34.8381 68.4511C34.8795 68.3477 34.9002 68.2373 34.9002 68.1201V68.1132C34.9002 67.9959 34.8795 67.8856 34.8381 67.7821C34.799 67.6787 34.7427 67.5878 34.6691 67.5097C34.5979 67.4315 34.5116 67.3706 34.4105 67.3269C34.3093 67.2809 34.199 67.2579 34.0794 67.2579C33.9599 67.2579 33.8495 67.2809 33.7483 67.3269C33.6495 67.3706 33.5644 67.4304 33.4931 67.5062C33.4219 67.5821 33.3656 67.6718 33.3242 67.7752C33.2851 67.8787 33.2655 67.989 33.2655 68.1063V68.1132C33.2655 68.2304 33.2851 68.3408 33.3242 68.4442C33.3656 68.5477 33.4219 68.6385 33.4931 68.7167C33.5667 68.7949 33.6541 68.8569 33.7552 68.9029C33.8564 68.9466 33.9668 68.9684 34.0863 68.9684Z" fill="#75B051"/>
</svg>
